<svg width="532" height="10" viewBox="0 0 532 10" fill="none" xmlns="http://www.w3.org/2000/svg">
<path d="M0.518994 5.11372L4.84912 9.44385L9.17925 5.11372L4.84912 0.783597L0.518994 5.11372ZM531.481 5.11377L527.151 0.783642L522.821 5.11377L527.151 9.4439L531.481 5.11377ZM4.84912 5.86372L527.151 5.86377L527.151 4.36377L4.84912 4.36372L4.84912 5.86372Z" fill="white"/>
<path d="M0.518994 5.11372L4.84912 9.44385L9.17925 5.11372L4.84912 0.783597L0.518994 5.11372ZM531.481 5.11377L527.151 0.783642L522.821 5.11377L527.151 9.4439L531.481 5.11377ZM4.84912 5.86372L527.151 5.86377L527.151 4.36377L4.84912 4.36372L4.84912 5.86372Z" fill="white"/>
</svg>
