<svg width="32" height="32" viewBox="0 0 32 32" fill="none" xmlns="http://www.w3.org/2000/svg">
<path d="M3.71901 15.333C10.43 12.409 14.905 10.482 17.144 9.54995C23.537 6.89095 24.865 6.42895 25.731 6.41395C25.921 6.41095 26.347 6.45795 26.623 6.68195C26.856 6.87095 26.92 7.12595 26.951 7.30495C26.982 7.48395 27.02 7.89195 26.989 8.21095C26.643 11.851 25.144 20.6839 24.381 24.761C24.058 26.486 23.423 27.065 22.808 27.121C21.471 27.2439 20.456 26.238 19.161 25.389C17.135 24.061 15.99 23.234 14.024 21.938C11.751 20.44 13.225 19.617 14.52 18.2719C14.859 17.92 20.749 12.562 20.863 12.076C20.877 12.015 20.89 11.7889 20.756 11.6689C20.622 11.5489 20.423 11.59 20.279 11.623C20.076 11.669 16.839 13.808 10.569 18.041C9.65001 18.672 8.81801 18.9789 8.07301 18.9629C7.25101 18.9449 5.67001 18.4979 4.49501 18.1159C3.05301 17.6469 1.90801 17.4 2.00701 16.604C2.05901 16.189 2.63001 15.766 3.72001 15.332L3.71901 15.333Z" fill="white"/>
</svg>
