<svg width="251" height="800" viewBox="0 0 251 800" fill="none" xmlns="http://www.w3.org/2000/svg">
<path d="M58.9331 655.788L68.1253 631.241L183.724 374.059L124.95 392.19L65.0612 631.241L58.9331 655.788Z" fill="#052938"/>
<path d="M187.067 144.212L177.596 169.317L67.5682 408.647L124.95 392.19L180.66 169.317L187.067 144.212Z" fill="#052938"/>
<path d="M129.011 243.421L88.8178 315.397L74.6318 254.312L0.391968 268.991L39.6398 432.831L100.167 420.993L207.98 227.795L129.011 243.421Z" fill="#292329"/>
<path d="M222.639 404.893L250.065 342.861L237.297 337.653C229.732 334.338 220.747 332.444 210.344 331.97C200.414 331.497 190.011 332.444 178.662 334.811C163.058 337.653 149.345 343.335 137.05 350.438C124.283 358.014 113.88 367.958 106.787 379.323C99.2208 391.161 95.4379 403.946 95.4379 417.205C95.4379 427.622 98.2751 436.619 103.477 442.775L72.7404 507.174L85.0349 512.857C93.0736 516.645 103.004 519.013 115.298 519.96C127.12 520.907 139.414 519.96 152.182 517.592C167.786 514.751 181.499 509.542 193.321 501.966C206.088 494.389 216.491 484.445 223.584 473.081C231.15 461.242 234.933 448.457 234.933 435.199C234.933 423.36 231.623 413.89 224.53 407.261C224.057 406.314 223.584 405.367 222.639 404.893Z" fill="#292329"/>
<path d="M185.282 242L98.2752 398.264L59.5002 405.84L27.8182 272.78L68.0118 265.203L87.8721 351.385L144.616 250.05L185.282 242Z" fill="white"/>
<path d="M126.174 494.863C115.771 493.916 107.259 492.022 101.112 489.18L116.717 456.981C123.81 460.295 131.376 462.19 138.941 462.663C146.98 463.61 155.019 463.137 162.585 461.242C170.15 459.822 175.825 457.454 180.081 454.613C184.336 451.772 186.228 447.984 186.228 444.196C186.228 440.881 184.336 438.513 180.554 437.566C176.771 436.619 171.096 435.672 163.058 435.199C154.073 434.725 146.507 433.778 140.833 432.357C134.686 430.937 129.957 428.569 125.701 424.307C121.445 420.046 119.081 413.89 119.081 405.84C119.081 395.896 121.918 386.899 127.12 378.376C132.321 369.852 140.36 362.749 150.29 356.593C160.22 350.438 172.042 346.176 185.755 343.335C195.685 341.441 205.143 340.494 213.654 340.967C222.166 341.441 229.732 342.861 235.879 345.229L221.693 377.429C216.491 375.061 210.344 373.64 203.724 373.167C197.104 372.693 190.484 373.167 183.391 374.587C175.825 376.008 169.678 378.376 164.949 382.164C160.693 385.478 158.329 389.267 158.329 393.055C158.329 396.37 160.22 398.737 164.003 399.684C167.786 400.631 173.933 401.578 181.972 402.052C190.957 402.525 198.522 403.472 204.197 404.419C209.871 405.84 215.073 408.208 219.328 412.469C223.584 416.731 225.476 422.413 225.476 430.463C225.476 440.407 222.639 449.404 217.437 457.928C211.763 466.451 204.197 474.028 194.267 479.71C184.336 485.866 172.515 490.127 159.275 492.969C147.453 494.863 136.577 495.81 126.174 494.863Z" fill="white"/>
</svg>
