<svg width="32" height="32" viewBox="0 0 32 32" fill="none" xmlns="http://www.w3.org/2000/svg">
<g id="Group">
<path id="Path" d="M16 28C9.372 28 4 22.628 4 16C4 9.372 9.372 4 16 4C22.628 4 28 9.372 28 16" stroke="white" stroke-width="1.5" stroke-linecap="round" stroke-linejoin="round"/>
<path id="Path_2" d="M4.67999 11.9999H27.1733" stroke="white" stroke-width="1.5" stroke-linecap="round" stroke-linejoin="round"/>
<g id="Group_2">
<path id="Path_3" d="M4.67999 19.9999H16" stroke="white" stroke-width="1.5" stroke-linecap="round" stroke-linejoin="round"/>
<path id="Path_4" d="M21.3333 15.9999C21.3333 12.3146 20.3693 8.62924 18.444 5.41324C17.3147 3.52924 14.6853 3.52924 13.5573 5.41324C9.70399 11.8466 9.70399 20.1546 13.5573 26.5879C14.1213 27.5292 15.0613 28.0012 16.0013 28.0012" stroke="white" stroke-width="1.5" stroke-linecap="round" stroke-linejoin="round"/>
<path id="Path_5" fill-rule="evenodd" clip-rule="evenodd" d="M25.56 25.56L28.9 24.224C29.488 23.9894 29.4747 23.152 28.88 22.9347L20.9253 20.0427C20.376 19.8427 19.844 20.376 20.0427 20.9254L22.9347 28.88C23.1507 29.476 23.988 29.488 24.224 28.9L25.56 25.56Z" stroke="white" stroke-width="1.5" stroke-linecap="round" stroke-linejoin="round"/>
</g>
</g>
</svg>
